<svg width="22" height="22" viewBox="0 0 22 22" fill="none" xmlns="http://www.w3.org/2000/svg">
<path d="M11.3416 4.4637C11.5349 4.27058 11.797 4.16211 12.0703 4.16211C12.3436 4.16211 12.6057 4.27058 12.7991 4.4637L18.6428 10.3075C18.8359 10.5008 18.9444 10.7629 18.9444 11.0362C18.9444 11.3095 18.8359 11.5716 18.6428 11.765L12.7991 17.6087C12.6035 17.7908 12.3449 17.8899 12.0777 17.8853C11.8105 17.8807 11.5555 17.7727 11.3663 17.584C11.1776 17.3947 11.0696 17.1398 11.065 16.8726C11.0604 16.6054 11.1595 16.3468 11.3416 16.1512L15.4253 12.0675H5.19531C4.92181 12.0675 4.65951 11.9588 4.46611 11.7654C4.27271 11.572 4.16406 11.3097 4.16406 11.0362C4.16406 10.7627 4.27271 10.5004 4.46611 10.307C4.65951 10.1136 4.92181 10.005 5.19531 10.005H15.4253L11.3416 5.9212C11.1484 5.72784 11.04 5.46573 11.04 5.19245C11.04 4.91917 11.1484 4.65706 11.3416 4.4637Z" fill="#0D0702"/>
</svg>
