<svg width="25" height="25" viewBox="0 0 25 25" fill="none" xmlns="http://www.w3.org/2000/svg">
<path d="M10.7324 9.10156V11.3379H8.94531V14.0234H10.7324V20.2832H13.418V14.0234H16.1035V11.3379H13.418V9.55078C13.418 9.01367 13.7793 8.65234 14.3164 8.65234H16.1035V5.9668H13.8672C12.168 5.9668 10.7324 7.40234 10.7324 9.10156Z" fill="#FCECDE"/>
<path d="M10.7324 9.10156V11.3379H8.94531V14.0234H10.7324V20.2832H13.418V14.0234H16.1035V11.3379H13.418V9.55078C13.418 9.01367 13.7793 8.65234 14.3164 8.65234H16.1035V5.9668H13.8672C12.168 5.9668 10.7324 7.40234 10.7324 9.10156Z" stroke="#FCECDE"/>
<path d="M12.5019 1.92383C6.68445 1.92383 1.92578 6.6825 1.92578 12.4999C1.92578 18.3173 6.68445 23.076 12.5019 23.076C18.3193 23.076 23.078 18.3173 23.078 12.4999C23.078 6.6825 18.3193 1.92383 12.5019 1.92383ZM12.5019 21.7184C7.43314 21.7184 3.28337 17.5686 3.28337 12.4999C3.28337 7.43119 7.43314 3.28142 12.5019 3.28142C17.5706 3.28142 21.7204 7.43119 21.7204 12.4999C21.7204 17.5686 17.5706 21.7184 12.5019 21.7184Z" fill="#FCECDE" stroke="#FCECDE" stroke-width="0.5"/>
</svg>
