<svg width="22" height="22" viewBox="0 0 22 22" fill="none" xmlns="http://www.w3.org/2000/svg">
<g clip-path="url(#clip0_635_452)">
<path d="M15.4665 7.62094C15.371 7.37372 15.2248 7.14924 15.0374 6.96196C14.8499 6.77467 14.6252 6.62873 14.3779 6.53354C14.0374 6.40741 13.6777 6.34075 13.3146 6.33646C12.7107 6.30896 12.5297 6.30208 11 6.30208C9.47032 6.30208 9.28928 6.30896 8.68542 6.33646C8.32192 6.34062 7.96184 6.40729 7.62094 6.53354C7.37373 6.62899 7.14925 6.77517 6.96196 6.96265C6.77468 7.15013 6.62874 7.37477 6.53355 7.62208C6.40742 7.96262 6.34075 8.3223 6.33646 8.68542C6.30896 9.28927 6.30209 9.47031 6.30209 11C6.30209 12.5297 6.30896 12.7107 6.33646 13.3146C6.34062 13.6781 6.40729 14.0382 6.53355 14.3791C6.629 14.6263 6.77517 14.8508 6.96266 15.038C7.15014 15.2253 7.37477 15.3713 7.62209 15.4665C7.96262 15.5926 8.3223 15.6592 8.68542 15.6635C9.28928 15.691 9.47032 15.6968 11 15.6968C12.5297 15.6968 12.7107 15.691 13.3146 15.6624C13.678 15.6586 14.0381 15.5923 14.3791 15.4665C14.6263 15.371 14.8508 15.2248 15.038 15.0373C15.2253 14.8499 15.3713 14.6252 15.4665 14.3779C15.5926 14.0374 15.6593 13.6777 15.6635 13.3146C15.691 12.7107 15.6968 12.5297 15.6968 11C15.6968 9.47031 15.691 9.28927 15.6624 8.68542C15.6586 8.32198 15.5923 7.9619 15.4665 7.62094ZM11 13.9425C10.418 13.9425 9.84913 13.7699 9.36524 13.4466C8.88135 13.1233 8.5042 12.6637 8.28149 12.126C8.05878 11.5884 8.00051 10.9967 8.11404 10.4259C8.22758 9.85516 8.50783 9.33085 8.91934 8.91934C9.33086 8.50782 9.85516 8.22758 10.426 8.11404C10.9967 8.0005 11.5884 8.05877 12.1261 8.28148C12.6637 8.50419 13.1233 8.88134 13.4466 9.36523C13.7699 9.84913 13.9425 10.418 13.9425 11C13.9425 11.7804 13.6325 12.5288 13.0807 13.0807C12.5288 13.6325 11.7804 13.9425 11 13.9425ZM14.0582 8.62927C13.9223 8.62927 13.7893 8.58895 13.6763 8.51341C13.5632 8.43786 13.4751 8.33049 13.4231 8.20487C13.371 8.07924 13.3574 7.94101 13.3839 7.80765C13.4105 7.67428 13.4759 7.55178 13.5721 7.45563C13.6682 7.35949 13.7907 7.29401 13.9241 7.26748C14.0575 7.24095 14.1957 7.25457 14.3213 7.3066C14.447 7.35864 14.5543 7.44676 14.6299 7.55982C14.7054 7.67287 14.7457 7.8058 14.7457 7.94177C14.7457 8.12411 14.6733 8.29898 14.5444 8.42791C14.4154 8.55684 14.2406 8.62927 14.0582 8.62927ZM12.9101 11C12.9101 11.3778 12.7981 11.7471 12.5882 12.0612C12.3783 12.3753 12.08 12.6201 11.731 12.7647C11.3819 12.9093 10.9979 12.9471 10.6274 12.8734C10.2568 12.7997 9.91649 12.6178 9.64936 12.3506C9.38222 12.0835 9.2003 11.7432 9.1266 11.3726C9.0529 11.0021 9.09073 10.6181 9.2353 10.269C9.37987 9.92001 9.62469 9.62169 9.93881 9.41181C10.2529 9.20192 10.6222 9.0899 11 9.0899C11.5066 9.0899 11.9924 9.29114 12.3507 9.64935C12.7089 10.0076 12.9101 10.4934 12.9101 11ZM11 0C8.82441 0 6.69767 0.645139 4.88873 1.85383C3.07979 3.06253 1.66989 4.78049 0.83733 6.79048C0.00476611 8.80047 -0.213071 11.0122 0.211367 13.146C0.635804 15.2798 1.68345 17.2398 3.22183 18.7782C4.76021 20.3166 6.72022 21.3642 8.85401 21.7886C10.9878 22.2131 13.1995 21.9952 15.2095 21.1627C17.2195 20.3301 18.9375 18.9202 20.1462 17.1113C21.3549 15.3023 22 13.1756 22 11C22 8.08262 20.8411 5.28473 18.7782 3.22183C16.7153 1.15893 13.9174 0 11 0ZM16.6948 13.3616C16.6851 13.837 16.5948 14.3074 16.4278 14.7526C16.2807 15.1331 16.0556 15.4787 15.7672 15.7672C15.4787 16.0556 15.1331 16.2807 14.7526 16.4278C14.3077 16.5947 13.8378 16.685 13.3627 16.6948C12.7508 16.7223 12.556 16.7292 11 16.7292C9.44396 16.7292 9.24917 16.7223 8.6373 16.6948C8.16224 16.685 7.69229 16.5947 7.2474 16.4278C6.86689 16.2807 6.52133 16.0556 6.23285 15.7672C5.94437 15.4787 5.71934 15.1331 5.57219 14.7526C5.40531 14.3077 5.31504 13.8378 5.30521 13.3627C5.27771 12.7508 5.27084 12.556 5.27084 11C5.27084 9.44396 5.27771 9.24917 5.30521 8.63729C5.31468 8.1623 5.40456 7.69235 5.57105 7.2474C5.71819 6.86657 5.94333 6.52071 6.23202 6.23202C6.52071 5.94333 6.86657 5.71819 7.2474 5.57104C7.69236 5.40455 8.16231 5.31467 8.6373 5.30521C9.24917 5.27771 9.44396 5.27083 11 5.27083C12.556 5.27083 12.7508 5.27771 13.3627 5.30521C13.8377 5.31467 14.3077 5.40455 14.7526 5.57104C15.1332 5.71832 15.4789 5.94352 15.7673 6.23221C16.0558 6.52089 16.2808 6.86668 16.4278 7.2474C16.5947 7.69228 16.685 8.16224 16.6948 8.63729C16.7223 9.24917 16.7292 9.44396 16.7292 11C16.7292 12.556 16.7223 12.7497 16.6948 13.3616Z" fill="#FCECDE"/>
</g>
<defs>
<clipPath id="clip0_635_452">
<rect width="22" height="22" fill="white"/>
</clipPath>
</defs>
</svg>
